<svg width="24" height="24" viewBox="0 0 24 24" fill="none" xmlns="http://www.w3.org/2000/svg">
<path d="M11.9651 11.5259C10.9772 11.5249 9.97507 11.9411 9.15602 12.7177C7.74344 14.0566 7.03243 15.8113 6.72859 17.8056C6.45878 19.5763 7.58067 20.7883 9.17159 20.033C9.96658 19.6555 11.1032 18.7341 11.9717 18.71C13.1027 18.6789 13.9401 19.7055 15.0116 20.1103C16.5964 20.8803 17.4267 19.7206 17.2045 17.9684C16.9719 15.9764 16.2722 14.2293 14.9182 12.8592C14.0878 12.0189 13.1097 11.533 11.9651 11.5259Z" fill="black"/>
<path d="M22.2711 12.0343C22.7318 10.5652 22.37 9.1436 21.4629 8.85919C20.5559 8.57478 19.4472 9.53521 18.9865 11.0044C18.5258 12.4736 18.8876 13.8951 19.7946 14.1795C20.7016 14.4639 21.8104 13.5035 22.2711 12.0343Z" fill="black"/>
<path d="M17.4154 6.59578C17.639 4.88588 16.9644 3.38783 15.9087 3.24978C14.853 3.11173 13.8159 4.38596 13.5924 6.09586C13.3688 7.80575 14.0433 9.3038 15.099 9.44185C16.1547 9.5799 17.1918 8.30567 17.4154 6.59578Z" fill="black"/>
<path d="M4.3106 14.1804C5.21762 13.8959 5.57943 12.4744 5.11874 11.0052C4.65805 9.53604 3.5493 8.57561 2.64229 8.86002C1.73528 9.14444 1.37346 10.566 1.83416 12.0352C2.29485 13.5043 3.40359 14.4648 4.3106 14.1804Z" fill="black"/>
<path d="M9.00638 9.44212C10.0621 9.30407 10.7366 7.80601 10.513 6.09612C10.2894 4.38623 9.25237 3.11199 8.19667 3.25004C7.14097 3.38809 6.46642 4.88614 6.69001 6.59604C6.9136 8.30593 7.95068 9.58016 9.00638 9.44212Z" fill="black"/>
</svg>
